<svg id="Layer_1" data-name="Layer 1" xmlns="http://www.w3.org/2000/svg" viewBox="0 0 60 37.23"><defs><style>.cls-1{fill:#d1d3d4;}</style></defs><title>cld</title><path class="cls-1" d="M5.55,43.1q5.08,5.07,14.21,5.13V44.48q-7.31,0-11.48-4A14.83,14.83,0,0,1,3.8,29.63,14.76,14.76,0,0,1,8.28,18.78q4.19-4,11.48-4V11q-9.12.06-14.21,5.14A18.42,18.42,0,0,0,0,29.63,18.47,18.47,0,0,0,5.55,43.1" transform="translate(0 -11)"/><path class="cls-1" d="M54.45,16.14q-5-5-13.84-5.13h-3.7V39.21h3.7V14.75q7,.11,11.11,4A14.81,14.81,0,0,1,56.2,29.6a14.76,14.76,0,0,1-4.48,10.85q-4.19,4-11.47,4v3.75q9.11,0,14.2-5.13A18.44,18.44,0,0,0,60,29.6a18.43,18.43,0,0,0-5.55-13.46" transform="translate(0 -11)"/><polygon class="cls-1" points="21.52 0 21.52 37.23 38.76 37.23 38.76 33.54 25.21 33.54 25.21 0 21.52 0"/></svg>